<?xml version="1.0" encoding="UTF-8"?>
<svg width="100mm" height="150mm" version="1.1" viewBox="0 0 100 150" xmlns="http://www.w3.org/2000/svg" xmlns:cc="http://creativecommons.org/ns#" xmlns:dc="http://purl.org/dc/elements/1.1/" xmlns:rdf="http://www.w3.org/1999/02/22-rdf-syntax-ns#">
  <metadata>
    <rdf:RDF>
      <cc:Work rdf:about="">
        <dc:format>image/svg+xml</dc:format>
        <dc:type rdf:resource="http://purl.org/dc/dcmitype/StillImage"/>
        <dc:title/>
      </cc:Work>
    </rdf:RDF>
  </metadata>
  <g transform="translate(-52.117 -82.183)">
    <path d="m102.12 82.183c-21.723 37.626-50 72.386-50 100s22.386 50 50 50c27.614 0 50-22.386 50-50s-28.087-62.045-50-100zm9.0118 48.017c0.28195-2e-3 0.49548 0.0158 0.62736 0.0558 0.73138 0.22176 0.31449 0.57702-4.8044 4.0933-9.8043 6.7349-13.774 10.522-18.039 17.208-3.107 4.8707-4.5394 8.148-5.6782 12.99-1.5688 6.6706-1.193 12.877 1.0645 17.57 1.3666 2.8412 5.1448 6.8482 7.4796 7.9328 1.8203 0.84562 3.6757 1.1335 19.797 3.0711 8.9494 1.0756 16.818 2.1333 17.486 2.3502 1.7347 0.56387 3.6844 2.0805 4.3243 3.3641 1.1373 2.2812 1.2408 4.197 0.40565 7.5086-1.3296 5.2724-4.064 9.7737-7.7535 12.764-1.4735 1.1942-6.0296 3.7589-8.7064 4.901-2.549 1.0876-7.4311 2.3669-10.179 2.6675-5.0008 0.54699-9.4953 0.23067-14.856-1.0454-6.1865-1.4727-10.811-3.4882-15.961-6.9572-6.9043-4.6502-12.158-11.021-15.625-18.946-1.6527-3.7784-3.1968-10.543-3.3228-14.556-0.47897-15.254 7.3062-30.951 20.703-41.74 6.5806-5.2998 12.91-8.5122 21.913-11.121 3.8439-1.1138 9.1518-2.0978 11.125-2.112z" stroke-width=".57208"/>
  </g>
</svg>
